<svg xmlns="http://www.w3.org/2000/svg" viewBox="0 0 140 140" width="140" height="140">
  <defs>
    <linearGradient id="g1i" x1="0%" y1="0%" x2="100%" y2="0%">
      <stop offset="0%" stop-color="#F25990"/><stop offset="20%" stop-color="#FF8C42"/>
      <stop offset="40%" stop-color="#FFD600"/><stop offset="60%" stop-color="#4DC9A0"/>
      <stop offset="80%" stop-color="#4A90D9"/><stop offset="100%" stop-color="#9B59E8"/>
    </linearGradient>
    <linearGradient id="g2i" x1="0%" y1="0%" x2="100%" y2="0%">
      <stop offset="0%" stop-color="#FF85B3"/><stop offset="20%" stop-color="#FFB347"/>
      <stop offset="40%" stop-color="#FFE44D"/><stop offset="60%" stop-color="#7DDFC4"/>
      <stop offset="80%" stop-color="#74B3F0"/><stop offset="100%" stop-color="#BC8AF5"/>
    </linearGradient>
    <linearGradient id="g3i" x1="0%" y1="0%" x2="100%" y2="0%">
      <stop offset="0%" stop-color="#FFB3D4"/><stop offset="20%" stop-color="#FFD0A0"/>
      <stop offset="40%" stop-color="#FFF0A0"/><stop offset="60%" stop-color="#B0EEE0"/>
      <stop offset="80%" stop-color="#B0D8FF"/><stop offset="100%" stop-color="#DCC8FF"/>
    </linearGradient>
  </defs>

  <!-- center x=70, y=90, radii 62/48/34 → top: 90-62=28, ok -->
  <path d="M 8 90 A 62 62 0 0 1 132 90"  stroke="url(#g1i)" stroke-width="13" fill="none" stroke-linecap="round"/>
  <path d="M 22 90 A 48 48 0 0 1 118 90" stroke="url(#g2i)" stroke-width="13" fill="none" stroke-linecap="round"/>
  <path d="M 36 90 A 34 34 0 0 1 104 90" stroke="url(#g3i)" stroke-width="13" fill="none" stroke-linecap="round"/>

  <!-- Stars: centered x=70, spaced 18px, y=103 -->
  <!-- x: 34, 52, 70, 88, 106 -->
  <polygon transform="translate(34,103)" points="0,-7 2,-2.5 7,-2.5 3,1.2 4.3,6.5 0,3.8 -4.3,6.5 -3,1.2 -7,-2.5 -2,-2.5" fill="#FFD700"/>
  <polygon transform="translate(52,103)" points="0,-7 2,-2.5 7,-2.5 3,1.2 4.3,6.5 0,3.8 -4.3,6.5 -3,1.2 -7,-2.5 -2,-2.5" fill="#FFD700"/>
  <polygon transform="translate(70,103)" points="0,-8 2.3,-2.9 8,-2.9 3.5,1.4 5,7.6 0,4.4 -5,7.6 -3.5,1.4 -8,-2.9 -2.3,-2.9" fill="#FFBF3A"/>
  <polygon transform="translate(88,103)" points="0,-7 2,-2.5 7,-2.5 3,1.2 4.3,6.5 0,3.8 -4.3,6.5 -3,1.2 -7,-2.5 -2,-2.5" fill="#FFD700"/>
  <polygon transform="translate(106,103)" points="0,-7 2,-2.5 7,-2.5 3,1.2 4.3,6.5 0,3.8 -4.3,6.5 -3,1.2 -7,-2.5 -2,-2.5" fill="#FFD700"/>
</svg>
